<svg width="119" height="41" viewBox="0 0 119 41" fill="none" xmlns="http://www.w3.org/2000/svg">
<path d="M114 -2.18557e-07C116.761 -9.78513e-08 119 2.23858 119 5L119 26C119 34.2843 112.284 41 104 41L15 41C6.71573 41 -1.49861e-06 34.2843 -1.1365e-06 26L-6.55671e-07 15C-2.93554e-07 6.71572 6.71573 -4.9081e-06 15 -4.54598e-06L114 -2.18557e-07Z" fill="#2B2B2B"/>
<path d="M25.5117 22.2832H28.4316C28.373 23.2402 28.1094 24.0898 27.6406 24.832C27.1784 25.5742 26.5306 26.1536 25.6973 26.5703C24.8704 26.987 23.8743 27.1953 22.709 27.1953C21.7975 27.1953 20.9805 27.0391 20.2578 26.7266C19.5352 26.4076 18.9167 25.9518 18.4023 25.3594C17.8945 24.7669 17.5072 24.0508 17.2402 23.2109C16.9733 22.3711 16.8398 21.4303 16.8398 20.3887V19.4023C16.8398 18.3607 16.9766 17.4199 17.25 16.5801C17.5299 15.7337 17.9271 15.0143 18.4414 14.4219C18.9622 13.8294 19.584 13.3737 20.3066 13.0547C21.0293 12.7357 21.8366 12.5762 22.7285 12.5762C23.9134 12.5762 24.9128 12.791 25.7266 13.2207C26.5469 13.6504 27.1816 14.2428 27.6309 14.998C28.0866 15.7533 28.36 16.6126 28.4512 17.5762H25.5215C25.4889 17.0033 25.375 16.5182 25.1797 16.1211C24.9844 15.7174 24.6882 15.4147 24.291 15.2129C23.9004 15.0046 23.3796 14.9004 22.7285 14.9004C22.2402 14.9004 21.8138 14.9915 21.4492 15.1738C21.0846 15.3561 20.7786 15.6328 20.5312 16.0039C20.2839 16.375 20.0983 16.8438 19.9746 17.4102C19.8574 17.9701 19.7988 18.6276 19.7988 19.3828V20.3887C19.7988 21.1243 19.8542 21.7721 19.9648 22.332C20.0755 22.8854 20.2448 23.3542 20.4727 23.7383C20.707 24.1159 21.0065 24.4023 21.3711 24.5977C21.7422 24.7865 22.1882 24.8809 22.709 24.8809C23.321 24.8809 23.8255 24.7832 24.2227 24.5879C24.6198 24.3926 24.9225 24.1029 25.1309 23.7188C25.3457 23.3346 25.4727 22.8561 25.5117 22.2832ZM35.8828 24.6172V19.9102C35.8828 19.5716 35.8275 19.2819 35.7168 19.041C35.6061 18.7936 35.4336 18.6016 35.1992 18.4648C34.9714 18.3281 34.6751 18.2598 34.3105 18.2598C33.998 18.2598 33.7279 18.3151 33.5 18.4258C33.2721 18.5299 33.0964 18.6829 32.9727 18.8848C32.849 19.0801 32.7871 19.3112 32.7871 19.5781H29.9746C29.9746 19.1289 30.0788 18.7025 30.2871 18.2988C30.4954 17.8952 30.7982 17.5404 31.1953 17.2344C31.5924 16.9219 32.0645 16.6777 32.6113 16.502C33.1647 16.3262 33.7832 16.2383 34.4668 16.2383C35.2871 16.2383 36.0163 16.375 36.6543 16.6484C37.2923 16.9219 37.7936 17.332 38.1582 17.8789C38.5293 18.4258 38.7148 19.1094 38.7148 19.9297V24.4512C38.7148 25.0306 38.7507 25.5059 38.8223 25.877C38.8939 26.2415 38.998 26.5605 39.1348 26.834V27H36.293C36.1562 26.7135 36.0521 26.3555 35.9805 25.9258C35.9154 25.4896 35.8828 25.0534 35.8828 24.6172ZM36.2539 20.5645L36.2734 22.1562H34.7012C34.3301 22.1562 34.0078 22.1986 33.7344 22.2832C33.4609 22.3678 33.2363 22.4883 33.0605 22.6445C32.8848 22.7943 32.7546 22.9701 32.6699 23.1719C32.5918 23.3737 32.5527 23.5951 32.5527 23.8359C32.5527 24.0768 32.6081 24.2949 32.7188 24.4902C32.8294 24.679 32.9889 24.8288 33.1973 24.9395C33.4056 25.0436 33.6497 25.0957 33.9297 25.0957C34.3529 25.0957 34.7207 25.0111 35.0332 24.8418C35.3457 24.6725 35.5866 24.4642 35.7559 24.2168C35.9316 23.9694 36.0228 23.735 36.0293 23.5137L36.7715 24.7051C36.6673 24.972 36.5241 25.2487 36.3418 25.5352C36.166 25.8216 35.9414 26.0918 35.668 26.3457C35.3945 26.5931 35.0658 26.7982 34.6816 26.9609C34.2975 27.1172 33.8418 27.1953 33.3145 27.1953C32.6439 27.1953 32.0352 27.0618 31.4883 26.7949C30.9479 26.5215 30.5182 26.1471 30.1992 25.6719C29.8867 25.1901 29.7305 24.6432 29.7305 24.0312C29.7305 23.4779 29.8346 22.9863 30.043 22.5566C30.2513 22.127 30.5573 21.7656 30.9609 21.4727C31.3711 21.1732 31.8822 20.9486 32.4941 20.7988C33.1061 20.6426 33.8158 20.5645 34.623 20.5645H36.2539ZM43.6953 18.7383V27H40.8828V16.4336H43.5293L43.6953 18.7383ZM46.8789 16.3652L46.8301 18.9727C46.6934 18.9531 46.5273 18.9368 46.332 18.9238C46.1432 18.9043 45.9707 18.8945 45.8145 18.8945C45.4173 18.8945 45.0723 18.9466 44.7793 19.0508C44.4928 19.1484 44.252 19.2949 44.0566 19.4902C43.8678 19.6855 43.7246 19.9232 43.627 20.2031C43.5358 20.4831 43.4837 20.8021 43.4707 21.1602L42.9043 20.9844C42.9043 20.3008 42.9727 19.6725 43.1094 19.0996C43.2461 18.5202 43.4447 18.0156 43.7051 17.5859C43.972 17.1562 44.2975 16.8242 44.6816 16.5898C45.0658 16.3555 45.5052 16.2383 46 16.2383C46.1562 16.2383 46.3158 16.2513 46.4785 16.2773C46.6413 16.2969 46.7747 16.3262 46.8789 16.3652ZM53.8711 16.4336V18.4258H47.7188V16.4336H53.8711ZM49.2422 13.8262H52.0547V23.8164C52.0547 24.1224 52.0938 24.3568 52.1719 24.5195C52.2565 24.6823 52.3802 24.7962 52.543 24.8613C52.7057 24.9199 52.9108 24.9492 53.1582 24.9492C53.334 24.9492 53.4902 24.9427 53.627 24.9297C53.7702 24.9102 53.8906 24.8906 53.9883 24.8711L53.998 26.9414C53.7572 27.0195 53.4967 27.0814 53.2168 27.127C52.9368 27.1725 52.6276 27.1953 52.2891 27.1953C51.6706 27.1953 51.1302 27.0944 50.668 26.8926C50.2122 26.6842 49.8607 26.3522 49.6133 25.8965C49.3659 25.4408 49.2422 24.8418 49.2422 24.0996V13.8262Z" fill="white"/>
<circle cx="86.5" cy="20.5" r="16.5" fill="#525252"/>
<path d="M91.7031 24.8027V27H81.9766V25.125L86.5762 20.1934C87.0384 19.679 87.403 19.2266 87.6699 18.8359C87.9368 18.4388 88.1289 18.084 88.2461 17.7715C88.3698 17.4525 88.4316 17.1497 88.4316 16.8633C88.4316 16.4336 88.36 16.0658 88.2168 15.7598C88.0736 15.4473 87.862 15.2064 87.582 15.0371C87.3086 14.8678 86.9701 14.7832 86.5664 14.7832C86.1367 14.7832 85.7656 14.8874 85.4531 15.0957C85.1471 15.304 84.9128 15.5938 84.75 15.9648C84.5938 16.3359 84.5156 16.7559 84.5156 17.2246H81.6934C81.6934 16.3783 81.8952 15.6035 82.2988 14.9004C82.7025 14.1908 83.2721 13.6276 84.0078 13.2109C84.7435 12.7878 85.6159 12.5762 86.625 12.5762C87.6211 12.5762 88.4609 12.7389 89.1445 13.0645C89.8346 13.3835 90.3555 13.8457 90.707 14.4512C91.0651 15.0501 91.2441 15.7663 91.2441 16.5996C91.2441 17.0684 91.1693 17.5273 91.0195 17.9766C90.8698 18.4193 90.6549 18.862 90.375 19.3047C90.1016 19.7409 89.7695 20.1836 89.3789 20.6328C88.9883 21.082 88.5553 21.5475 88.0801 22.0293L85.6094 24.8027H91.7031Z" fill="white"/>
</svg>
